<svg id="visual" viewBox="0 0 960 540" width="960" height="540" xmlns="http://www.w3.org/2000/svg" xmlns:xlink="http://www.w3.org/1999/xlink" version="1.1"><rect x="0" y="0" width="960" height="540" fill="#111111"></rect><g fill="none" stroke="#262626" stroke-width="2"><circle r="35" cx="411" cy="30"></circle><circle r="21" cx="941" cy="135"></circle><circle r="28" cx="343" cy="310"></circle><circle r="28" cx="144" cy="277"></circle><circle r="21" cx="603" cy="473"></circle><circle r="28" cx="207" cy="459"></circle><circle r="31" cx="718" cy="188"></circle><circle r="26" cx="393" cy="445"></circle><circle r="33" cx="832" cy="285"></circle><circle r="33" cx="99" cy="466"></circle><circle r="26" cx="656" cy="232"></circle><circle r="33" cx="958" cy="421"></circle><circle r="27" cx="439" cy="220"></circle><circle r="23" cx="508" cy="335"></circle><circle r="25" cx="360" cy="111"></circle><circle r="22" cx="408" cy="527"></circle><circle r="30" cx="900" cy="46"></circle><circle r="31" cx="202" cy="131"></circle><circle r="27" cx="568" cy="291"></circle><circle r="22" cx="743" cy="498"></circle><circle r="20" cx="209" cy="380"></circle><circle r="33" cx="11" cy="194"></circle><circle r="26" cx="125" cy="183"></circle><circle r="32" cx="935" cy="300"></circle><circle r="31" cx="652" cy="125"></circle></g></svg>